<?xml version="1.0" standalone="no"?><!DOCTYPE svg PUBLIC "-//W3C//DTD SVG 1.1//EN" "http://www.w3.org/Graphics/SVG/1.1/DTD/svg11.dtd"><svg class="icon" width="200px" height="200.00px" viewBox="0 0 1024 1024" version="1.1" xmlns="http://www.w3.org/2000/svg"><path fill="#cdcdcd" d="M920.188397 1023.705916h-73.520964a25.291212 25.291212 0 1 1 0-50.582424h73.520964a40.024813 40.024813 0 0 0 39.995405-39.995405V229.679495a39.789546 39.789546 0 0 0-39.995405-39.701322H856.960368a25.291212 25.291212 0 1 1 0-50.582423h63.228029a90.54842 90.54842 0 0 1 90.577829 90.283745v703.448592a90.607237 90.607237 0 0 1-90.577829 90.577829z m-216.151637 0H103.811603a90.607237 90.607237 0 0 1-90.577829-90.577829V229.679495a90.54842 90.54842 0 0 1 90.577829-90.283745h89.107409a25.291212 25.291212 0 1 1 0 50.582423H103.811603a39.789546 39.789546 0 0 0-39.995405 39.701322v703.448592a40.024813 40.024813 0 0 0 39.995405 39.995405H704.03676a40.024813 40.024813 0 0 0 39.995405-39.995405V229.679495a39.789546 39.789546 0 0 0-39.995405-39.701322h-89.107409a25.291212 25.291212 0 1 1 0-50.582423h89.107409a90.54842 90.54842 0 0 1 90.577829 90.283745v703.448592a90.607237 90.607237 0 0 1-90.577829 90.577829zM208.211373 386.426192h190.566341a25.291212 25.291212 0 0 1 0 50.582424H208.211373a25.291212 25.291212 0 0 1 0-50.582424z m0 391.131533h412.011487a25.291212 25.291212 0 0 1 0 50.582424H208.211373a25.291212 25.291212 0 1 1 0-50.582424z m0-195.565766h412.011487a25.291212 25.291212 0 0 1 0 50.582424H208.211373a25.291212 25.291212 0 1 1 0-50.582424zM527.292361 241.442849h-247.030443a61.551752 61.551752 0 0 1-61.169442-61.463527V133.808156a61.551752 61.551752 0 0 1 61.169442-61.463526h22.05629A61.757611 61.757611 0 0 1 362.605399 0.294084h82.343481a61.757611 61.757611 0 0 1 61.463527 61.463527c0 3.82309-0.588168 7.058013-0.882252 10.587019h21.762206a61.757611 61.757611 0 0 1 61.463526 61.463526v46.171166a61.757611 61.757611 0 0 1-61.463526 61.463527z m10.881103-107.634693a10.675244 10.675244 0 0 0-10.881103-10.881103h-72.050546a25.291212 25.291212 0 0 1-0.588168-50.582423 35.290063 35.290063 0 0 0 1.176336-10.587019 10.675244 10.675244 0 0 0-10.881103-10.881103h-82.343481a10.616427 10.616427 0 0 0-10.587019 10.881103 35.290063 35.290063 0 0 0 1.176336 10.587019 25.291212 25.291212 0 0 1-0.882252 50.582423 5.881677 5.881677 0 0 1-2.058587-0.294083c-0.294084 0-0.588168 0.294084-0.882251 0.294083H280.261918a10.616427 10.616427 0 0 0-10.587019 10.881103v46.171166a10.792878 10.792878 0 0 0 10.587019 10.881103h247.030443a10.851694 10.851694 0 0 0 10.881103-10.881103V133.808156z" /></svg>