<?xml version="1.0" standalone="no"?><!DOCTYPE svg PUBLIC "-//W3C//DTD SVG 1.1//EN" "http://www.w3.org/Graphics/SVG/1.1/DTD/svg11.dtd"><svg class="icon" width="200px" height="200.00px" viewBox="0 0 1024 1024" version="1.1" xmlns="http://www.w3.org/2000/svg"><path fill="#cdcdcd" d="M825.6 793c-1.2 53.1-44.6 95.5-97.7 95.5H299.1c-53.1 0-96.5-42.4-97.7-95.5v-48.9c2.7-127.9 108-229.7 235.9-228.1h153.1c127.9-1.6 233.2 100.2 235.9 228.1l-0.7 48.9z m-476-498.8c0-90 72.9-162.9 162.9-162.9s162.9 72.9 162.9 162.9-73 162.9-162.9 162.9c-90 0-162.9-72.9-162.9-162.9zM659.1 462c50.3-41.1 79.5-102.5 79.8-167.5C737 170.9 635.2 72.3 511.6 74.3h-0.7c-123.6-2.4-225.7 95.9-228.1 219.5v0.7c1 65.5 31.6 127 83.1 167.5-132.1 30.1-226.3 146.7-228.1 282.2V793c1.3 87.8 73.4 158 161.3 156.7h428.1c87.3 0.5 158.7-69.4 160-156.7v-48.9c-1.7-135.4-96-252-228.1-282.1z"  /></svg>