<?xml version="1.0" standalone="no"?><!DOCTYPE svg PUBLIC "-//W3C//DTD SVG 1.1//EN" "http://www.w3.org/Graphics/SVG/1.1/DTD/svg11.dtd"><svg class="icon" width="200px" height="200.00px" viewBox="0 0 1024 1024" version="1.1" xmlns="http://www.w3.org/2000/svg"><path fill="#cdcdcd" d="M789.897846 56.871385h76.327385A157.380923 157.380923 0 0 1 1024 214.016v630.941538a157.302154 157.302154 0 0 1-157.774769 157.144616H157.774769A157.380923 157.380923 0 0 1 0 844.957538V214.016a157.302154 157.302154 0 0 1 157.774769-157.144615h69.789539V39.384615c0-21.740308 17.486769-39.384615 39.384615-39.384615 21.740308 0 39.384615 17.486769 39.384615 39.384615v17.48677h404.795077V39.384615c0-21.740308 17.447385-39.384615 39.384616-39.384615 21.740308 0 39.384615 17.486769 39.384615 39.384615v17.48677z m0 78.76923V157.538462c0 21.740308-17.486769 39.384615-39.384615 39.384615-21.779692 0-39.384615-17.486769-39.384616-39.384615v-21.897847H306.333538V157.538462c0 21.740308-17.486769 39.384615-39.384615 39.384615-21.779692 0-39.384615-17.486769-39.384615-39.384615v-21.897847H157.144615A78.375385 78.375385 0 0 0 78.769231 214.055385v630.902153c0 43.008 35.091692 78.375385 78.414769 78.375385H866.855385A78.375385 78.375385 0 0 0 945.230769 844.957538V214.055385c0-43.008-35.091692-78.375385-78.414769-78.375385h-76.918154z m-341.543384 582.577231a28.750769 28.750769 0 0 1-20.48-8.467692L277.661538 559.143385a29.026462 29.026462 0 0 1 0-40.96 28.829538 28.829538 0 0 1 40.841847 0l129.851077 130.087384 282.702769-283.372307a28.829538 28.829538 0 0 1 40.881231 0 29.026462 29.026462 0 0 1 0 40.96l-303.143385 303.852307a28.750769 28.750769 0 0 1-20.48 8.507077z"  /></svg>